# xmcd
#
# Track frame offsets:
#      150
#      24977
#      44325
#      71732
# 
# Disc length: 1192 seconds
#
# Revision: 1
# Processed by: cddbd v1.4PL0 Copyright (c) Steve Scherf et al.
#
# Submitted via: FreeRIP 1.20
#
DISCID=2e04a604
DTITLE=Sonic Surfers - Beat of Zen
DYEAR=1900
DGENRE=
TTITLE0=Beat of Zen (Yin extended mix)
TTITLE1=Beat of Zen (Yang)
TTITLE2=Beat of Zen (Yang extended mix)
TTITLE3=Beat of Zen (Yin)
EXTD=
EXTT0=
EXTT1=
EXTT2=
EXTT3=06:05
PLAYORDER=
